<?xml version="1.0" encoding="UTF-8" standalone="no"?>
<svg
   xmlns:dc="http://purl.org/dc/elements/1.1/"
   xmlns:cc="http://creativecommons.org/ns#"
   xmlns:rdf="http://www.w3.org/1999/02/22-rdf-syntax-ns#"
   xmlns:svg="http://www.w3.org/2000/svg"
   xmlns="http://www.w3.org/2000/svg"
   xmlns:sodipodi="http://sodipodi.sourceforge.net/DTD/sodipodi-0.dtd"
   xmlns:inkscape="http://www.inkscape.org/namespaces/inkscape"
   width="8"
   height="8"
   viewBox="0 0 8 8"
   id="svg2"
   version="1.1"
   inkscape:version="0.91 r13725"
   sodipodi:docname="clock_red_stop.svg">
  <metadata
     id="metadata10">
    <rdf:RDF>
      <cc:Work
         rdf:about="">
        <dc:format>image/svg+xml</dc:format>
        <dc:type
           rdf:resource="http://purl.org/dc/dcmitype/StillImage" />
        <dc:title></dc:title>
      </cc:Work>
    </rdf:RDF>
  </metadata>
  <defs
     id="defs8" />
  <sodipodi:namedview
     pagecolor="#ffffff"
     bordercolor="#666666"
     borderopacity="1"
     objecttolerance="10"
     gridtolerance="10"
     guidetolerance="10"
     inkscape:pageopacity="0"
     inkscape:pageshadow="2"
     inkscape:window-width="1366"
     inkscape:window-height="705"
     id="namedview6"
     showgrid="false"
     inkscape:zoom="32"
     inkscape:cx="6.4864205"
     inkscape:cy="3.2019054"
     inkscape:window-x="-8"
     inkscape:window-y="-8"
     inkscape:window-maximized="1"
     inkscape:current-layer="svg2" />
  <path
     id="path4"
     style="fill:#ff0000;fill-opacity:1"
     d="m 2.5429688,1.4667969 0,1.5996093 0.1171874,0.09375 L 3.0234375,3.5234375 3.2695312,3.8007812 3.7929688,3.2773438 3.515625,3.0292969 3.2695312,2.7832031 l 0,-1.3164062 -0.7265624,0 z M 2.90625,0.7265625 c 1.2060938,0 2.1796875,0.9735938 2.1796875,2.1796875 0,1.2060938 -0.9735937,2.1796875 -2.1796875,2.1796875 -1.2060937,0 -2.1796875,-0.9735937 -2.1796875,-2.1796875 0,-1.2060937 0.9735938,-2.1796875 2.1796875,-2.1796875 z M 2.90625,0 C 1.3078125,0 0,1.3078125 0,2.90625 0,4.5046875 1.3078125,5.8125 2.90625,5.8125 4.5046875,5.8125 5.8125,4.5046875 5.8125,2.90625 5.8125,1.3078125 4.5046875,0 2.90625,0 Z" />
  <path
     d="m 3.8357341,3.840125 0,4.156 4.156,0 0,-4.156 -4.156,0 z"
     id="path4177"
     inkscape:connector-curvature="0"
     style="fill:#ffffff" />
</svg>
